<svg xmlns="http://www.w3.org/2000/svg" viewBox="0 0 200 134">
  <path fill="#FFF159" d="M200 67c0 36.995-44.787 67-100 67S0 103.995 0 67 44.787 0 100 0s100 30.005 100 67z"/>
  <path fill="#2D3277" d="M125.845 77.94c-1.39-1.348-3.05-1.956-5.076-2.124-2.884-.236-4.992 1.35-6.528 2.87-1.127 1.11-2.22 2.253-3.266 3.447-1.01 1.15-2.5 1.58-3.923.86-1.554-.787-2.618-2.144-3.344-3.71-.564-1.22-1.077-2.457-1.632-3.676-.554-1.21-1.066-2.438-1.577-3.665-.588-1.41-1.26-2.846-2.31-3.963-1.6-1.696-3.8-2.336-6.077-1.844-3.37.73-6.236 2.4-8.868 4.417-3.23 2.47-5.9 5.51-7.857 9.176-1.996 3.73-3.257 7.74-4.45 11.758-1.745 5.86-3.513 11.666-5.28 17.497-.333 1.1-1.378 1.83-2.544 1.845-7.397.094-14.774-.6-22.09-1.92-2.394-.43-4.733-1-7.067-1.62-.9-.24-1.224-1.36-.612-2.07 10.457-12.063 26.657-19.167 42.448-21.785 1.843-.306 3.653-1.298 5.253-2.316 4.795-3.052 9.53-6.19 14.332-9.22 1.76-1.108 3.528-2.203 5.394-3.1 3.553-1.705 7.643-2.443 11.553-2.023 2.91.31 5.353 1.636 7.498 3.535 3.333 2.95 6.666 5.89 10 8.84 1.344 1.18 2.72 2.33 4.09 3.49-1.155.84-2.22 1.8-3.14 2.89-2.067 2.45-3.834 5.12-5.46 7.89-1.94 3.32-3.78 6.72-5.32 10.25-1.07 2.46-1.93 5-2.67 7.56-.25.87-1.19 1.38-2.04 1.09-2.52-.87-4.99-1.87-7.42-2.97-.84-.38-1.19-1.37-.8-2.21 1.72-3.75 3.4-7.51 5.13-11.26 1.11-2.4 2.37-4.73 3.79-6.95 1.48-2.32 3.14-4.52 5.09-6.49.52-.52.5-1.35-.04-1.85-2.47-2.23-4.98-4.43-7.48-6.63-2.32-2.04-4.63-4.08-6.96-6.1-1.3-1.13-3-1.65-4.68-1.57-2.4.11-4.72 1.06-6.84 2.34-3.5 2.1-7.01 4.2-10.5 6.3-2.6 1.57-5.18 3.16-7.83 4.63-2.18 1.2-4.5 2.06-6.92 2.5-16.7 2.99-31.95 10.7-41.97 24.36-.67.91.43 2.21 1.49 1.83 14.28-5.18 29.56-6.99 44.75-5.91 1.28.09 2.5.3 3.69.57.8.18 1.4-.44 1.63-1.2 1.69-5.63 3.39-11.26 5.1-16.88 1.12-3.69 2.33-7.35 4-10.87 1.8-3.7 4.14-7.1 7-10 2.27-2.31 5.13-4.02 8.35-4.62 1.93-.36 3.9-.3 5.8.19.82.21 1.41.97 2.03 1.64 1.03 1.1 1.85 2.45 2.36 3.93.53 1.52.88 3.09 1.43 4.6 1.03 2.82 2.74 5.2 4.96 7.22 1.6 1.46 3.32 2.76 5.14 3.9 1.2.75 2.55.97 3.95.83 2.05-.2 3.94-1 5.48-2.3 2.02-1.72 4-3.51 6.02-5.25.96-.82 1.95-1.6 2.9-2.42 1.15-.99 2.14-.99 3.25.04 1.12 1.03 2.24 2.05 3.34 3.1 1.07 1 2.07 2.06 3.06 3.12 1.26 1.34 2.46 2.71 3.52 4.2.78 1.09 1.41 2.27 1.76 3.58.33 1.24.28 2.52-.09 3.75-.41 1.36-1.14 2.57-2 3.65-.95 1.19-2 2.28-3.09 3.33-1.4 1.36-2.88 2.62-4.42 3.82-1.12.87-1.12.86-.14 1.81 1.71 1.68 3.51 3.27 5.28 4.89 1.02.93 2.13.92 3.15-.04 1.13-1.07 2.21-2.19 3.25-3.35 1.83-2.04 3.42-4.25 4.67-6.7 1.33-2.61 2-5.41 1.89-8.29-.08-2.14-.54-4.22-1.45-6.17-.9-1.93-2.16-3.66-3.67-5.18-1.52-1.54-3.1-3.02-4.66-4.52-1.11-1.06-2.22-2.11-3.32-3.18-.5-.48-.52-1.25-.04-1.74 2.25-2.31 4.58-4.54 6.89-6.79 1.14-1.11 2.37-2.14 3.64-3.08 2.75-2.03 5.8-3.23 9.17-3.41 2.1-.11 4.19.16 6.16 1.03 1.54.68 2.92 1.6 4.1 2.77 1.69 1.68 3.39 3.34 5.09 5.01 1.29 1.27 2.59 2.53 3.88 3.8.7.69.7 1.77.01 2.46-1.32 1.33-2.66 2.64-4 3.96-1.2 1.19-2.38 2.4-3.52 3.65-1.92 2.1-3.61 4.38-4.95 6.9-1.33 2.51-2.17 5.17-2.45 7.97-.24 2.4.08 4.75.92 7.02.76 2.05 1.88 3.92 3.27 5.61 1.45 1.76 3.09 3.34 4.8 4.85.98.86 2.11.75 3.01-.16 1.32-1.34 2.66-2.67 3.98-4.01 1.24-1.26 1.24-1.25.13-2.39-1.96-2.02-3.95-4-5.96-5.97-1.14-1.11-2.24-2.26-3.28-3.46-1.73-1.98-3.1-4.2-3.96-6.66-.79-2.26-.95-4.63-.5-6.95.42-2.15 1.28-4.17 2.45-6.02 1.21-1.91 2.65-3.64 4.25-5.22 1.61-1.59 3.26-3.12 4.9-4.66 1.13-1.07 1.12-1.08 2.22.02 1.68 1.68 3.36 3.36 5.06 5.03 1.2 1.19 2.4 2.38 3.6 3.58.55.55.55 1.37.01 1.93-1.68 1.73-3.4 3.42-5.11 5.12-1.4 1.4-2.76 2.82-4.06 4.32-2.02 2.32-3.57 4.93-4.52 7.82-.9 2.74-1.14 5.56-.75 8.39.42 3 1.41 5.84 2.94 8.44 1.62 2.76 3.6 5.25 5.76 7.55 1.29 1.37 2.66 2.67 4 4 .98.98 2.14.86 3.06-.11 1.66-1.76 3.34-3.51 5.03-5.25.99-1.02.99-1.03.02-2.02-1.75-1.79-3.52-3.57-5.3-5.34-1.39-1.39-2.75-2.8-4-4.29-1.9-2.26-3.32-4.79-4.18-7.55-.86-2.77-1.1-5.63-.73-8.48.4-3.05 1.41-5.94 2.99-8.58 1.67-2.79 3.73-5.3 6.01-7.58 1.44-1.44 2.92-2.84 4.41-4.23.94-.88.94-.88 1.83.02 2.13 2.16 4.3 4.28 6.45 6.42 1.02.98 2.05 1.96 3.08 2.94.46.44.47 1.05.01 1.49-2.08 2.02-4.2 4.02-6.31 6.02-1.57 1.49-3.1 3.03-4.57 4.63-2.12 2.32-3.78 4.92-4.8 7.82-.98 2.81-1.29 5.73-.91 8.65.42 3.2 1.5 6.22 3.19 8.97 1.8 2.93 4 5.54 6.43 7.9 1.25 1.21 2.54 2.38 3.82 3.56.88.8 1.9.68 2.72-.18 2.01-2.11 4.04-4.2 6.08-6.28.98-.99.99-1.01-.01-1.99-1.94-1.91-3.87-3.83-5.81-5.74-1.33-1.31-2.61-2.67-3.82-4.08-1.74-2.03-3.08-4.3-3.92-6.78-.8-2.35-1.08-4.81-.85-7.25.26-2.72 1.1-5.29 2.35-7.7 1.29-2.5 3-4.75 4.96-6.75 1.77-1.8 3.59-3.56 5.4-5.32 1.05-1.02 1.05-1.02 2.1-.01 1.63 1.58 3.25 3.16 4.88 4.74 1.22 1.18 2.44 2.37 3.65 3.55.58.57.6 1.4.04 1.97-2.18 2.23-4.42 4.41-6.64 6.6-1.51 1.48-2.95 3.02-4.32 4.64-1.87 2.22-3.3 4.7-4.14 7.42-.81 2.58-1.06 5.25-.74 7.91.35 2.87 1.27 5.57 2.69 8.02 1.51 2.61 3.4 4.94 5.51 7.02 1.4 1.38 2.84 2.71 4.28 4.05 1 1 2 2.01 2.96 3.05.74.8 1.7.75 2.45-.03 2.02-2.1 4.05-4.19 6.08-6.28.89-.92.89-.93-.05-1.86-1.91-1.89-3.83-3.77-5.75-5.65-1.42-1.39-2.8-2.82-4.09-4.33-1.81-2.1-3.21-4.45-4.04-7.04-.81-2.52-1.06-5.14-.73-7.75.36-2.85 1.31-5.52 2.76-7.94 1.54-2.57 3.44-4.86 5.57-6.91 1.83-1.75 3.7-3.46 5.57-5.17.65-.59.66-.59 1.26-.01 2.05 1.97 4.1 3.93 6.13 5.91.73.71.74 1.67.01 2.4-2 2-4 4.02-6 6.04-1.75 1.76-3.41 3.6-4.94 5.54-2.02 2.58-3.49 5.43-4.22 8.52-.73 3.08-.8 6.22-.22 9.31.57 3 1.67 5.8 3.23 8.35 1.63 2.66 3.61 5.05 5.86 7.15 1.57 1.47 3.18 2.89 4.8 4.3.92.8 1.85.73 2.68-.13 1.96-2.01 3.9-4.04 5.85-6.06.84-.87.84-.87-.04-1.74zM86.85 91.13c-1.32-.96-2.57-1.99-3.79-3.07-1.57-1.39-3.04-2.88-4.44-4.45-1.31-1.46-2.48-3-3.48-4.66-2.19-3.62-3.47-7.63-3.8-11.83-.24-3.04.14-5.97 1.05-8.81 1.02-3.18 2.69-6.04 4.83-8.54 1.76-2.06 3.8-3.85 6-5.4 1.57-1.1 3.25-2.05 4.98-2.91 2.87-1.43 5.92-2.42 9.06-2.87 3.32-.47 6.64-.32 9.87.5 3.07.78 5.96 2.08 8.61 3.82 2.58 1.69 4.83 3.75 6.74 6.13 1.5 1.87 2.74 3.93 3.68 6.15 1.13 2.64 1.71 5.42 1.75 8.25.04 2.85-.45 5.61-1.44 8.24-.96 2.53-2.31 4.86-3.95 6.95-1.76 2.24-3.84 4.21-6.15 5.9-1.99 1.46-4.14 2.66-6.42 3.58-2.6 1.05-5.32 1.73-8.08 2-3.2.32-6.37.11-9.48-.68-2.57-.65-5.01-1.63-7.28-2.94-1.65-.95-3.19-2.03-4.63-3.23-.59-.51-1.12-1.07-1.63-1.64z"/>
</svg>
